<svg xmlns="http://www.w3.org/2000/svg" version="1.1" xmlns:xlink="http://www.w3.org/1999/xlink" xmlns:svgjs="http://svgjs.dev/svgjs" width="128" height="128" viewBox="0 0 128 128"><g transform="matrix(0.8046875,0,0,0.8046875,12.333870967741937,12.333870967741937)"><svg viewBox="0 0 155 155" data-background-color="#001f3f" preserveAspectRatio="xMidYMid meet" height="128" width="128" xmlns="http://www.w3.org/2000/svg" xmlns:xlink="http://www.w3.org/1999/xlink"><g id="tight-bounds" transform="matrix(1,0,0,1,0.25,0.25)"><svg viewBox="0 0 154.5 154.5" height="154.5" width="154.5"><g><svg></svg></g><g><svg viewBox="0 0 154.5 154.5" height="154.5" width="154.5"><g transform="matrix(1,0,0,1,51.888714326647566,47.746371)"><svg viewBox="0 0 50.72257134670487 59.00725799999999" height="59.00725799999999" width="50.72257134670487"><g><svg viewBox="0 0 50.72257134670487 59.00725799999999" height="59.00725799999999" width="50.72257134670487"><g><svg viewBox="0 0 50.72257134670487 59.00725799999999" height="59.00725799999999" width="50.72257134670487"><g id="textblocktransform"><svg viewBox="0 0 50.72257134670487 59.00725799999999" height="59.00725799999999" width="50.72257134670487" id="textblock"><g><svg viewBox="0 0 50.72257134670487 59.00725799999999" height="59.00725799999999" width="50.72257134670487"><g transform="matrix(1,0,0,1,0,0)"><svg width="50.72257134670487" viewBox="2.25 -34.9 30 34.9" height="59.00725799999999" data-palette-color="#ffffff"><path d="M2.25 0L2.25-3 5.8-3 5.8-31.9 2.25-31.9 2.25-34.9 19.9-34.9Q22.65-34.9 24.73-34.27 26.8-33.65 28.15-32.58 29.5-31.5 30.18-30 30.85-28.5 30.85-26.7L30.85-26.7Q30.85-24.85 30.25-23.45 29.65-22.05 28.63-21.05 27.6-20.05 26.3-19.43 25-18.8 23.6-18.5L23.6-18.5 23.6-18.25Q25.05-18.1 26.6-17.53 28.15-16.95 29.4-15.9 30.65-14.85 31.45-13.3 32.25-11.75 32.25-9.7L32.25-9.7Q32.25-5.1 29.38-2.55 26.5 0 21.05 0L21.05 0 2.25 0ZM12.8-16.3L12.8-3.25 19.25-3.25Q22.05-3.25 23.55-4.67 25.05-6.1 25.05-8.65L25.05-8.65 25.05-10.9Q25.05-13.45 23.55-14.88 22.05-16.3 19.25-16.3L19.25-16.3 12.8-16.3ZM12.8-31.65L12.8-19.55 18.4-19.55Q21-19.55 22.33-20.83 23.65-22.1 23.65-24.5L23.65-24.5 23.65-26.7Q23.65-29.1 22.33-30.38 21-31.65 18.4-31.65L18.4-31.65 12.8-31.65Z" opacity="1" transform="matrix(1,0,0,1,0,0)" fill="#ffffff" class="wordmark-text-0" data-fill-palette-color="primary" id="text-0"></path></svg></g></svg></g></svg></g></svg></g></svg></g></svg></g><g><path d="M51.166 33.816A25.361 25.361 0 0 1 103.334 33.816L98.013 33.816A20.04 20.04 0 0 0 56.487 33.816L51.166 33.816M51.166 120.684A25.361 25.361 0 0 0 103.334 120.684L98.013 120.684A20.04 20.04 0 0 1 56.487 120.684L51.166 120.684" fill="#333738" stroke="transparent" data-fill-palette-color="tertiary"></path></g></svg></g><defs></defs></svg><rect width="154.5" height="154.5" fill="none" stroke="none" visibility="hidden"></rect></g></svg></g></svg>